<svg id="svg" xmlns="http://www.w3.org/2000/svg" xmlns:xlink="http://www.w3.org/1999/xlink" width="400" height="400" viewBox="0, 0, 400,400"><g id="svgg"><path id="path0" d="M183.200 1.595 C 182.870 1.811,181.216 1.991,179.524 1.994 C 177.832 1.997,176.336 2.180,176.200 2.400 C 176.064 2.620,174.714 2.800,173.200 2.800 C 171.686 2.800,170.336 2.980,170.200 3.200 C 170.064 3.420,169.164 3.600,168.200 3.600 C 167.236 3.600,166.336 3.780,166.200 4.000 C 166.064 4.220,165.153 4.400,164.176 4.400 C 163.199 4.400,162.400 4.580,162.400 4.800 C 162.400 5.020,161.500 5.200,160.400 5.200 C 159.300 5.200,158.400 5.380,158.400 5.600 C 158.400 5.820,157.680 6.000,156.800 6.000 C 155.920 6.000,155.200 6.180,155.200 6.400 C 155.200 6.620,154.300 6.800,153.200 6.800 C 152.100 6.800,151.200 6.980,151.200 7.200 C 151.200 7.420,150.570 7.600,149.800 7.600 C 149.030 7.600,148.400 7.780,148.400 8.000 C 148.400 8.220,147.860 8.400,147.200 8.400 C 146.540 8.400,146.000 8.580,146.000 8.800 C 146.000 9.020,145.460 9.200,144.800 9.200 C 144.140 9.200,143.600 9.380,143.600 9.600 C 143.600 9.820,142.991 10.000,142.246 10.000 C 140.872 10.000,137.585 10.873,135.400 11.819 C 134.740 12.105,133.660 12.467,133.000 12.624 C 132.340 12.782,131.620 13.039,131.400 13.197 C 131.180 13.355,130.145 13.729,129.100 14.029 C 128.055 14.329,127.200 14.715,127.200 14.887 C 127.200 15.059,126.840 15.200,126.400 15.200 C 125.960 15.200,125.600 15.380,125.600 15.600 C 125.600 15.820,125.060 16.000,124.400 16.000 C 123.740 16.000,123.200 16.180,123.200 16.400 C 123.200 16.620,122.840 16.800,122.400 16.800 C 121.960 16.800,121.600 16.980,121.600 17.200 C 121.600 17.420,121.075 17.600,120.433 17.600 C 119.792 17.600,119.207 17.735,119.133 17.900 C 118.941 18.332,115.628 20.000,114.962 20.000 C 114.653 20.000,114.399 20.135,114.399 20.300 C 114.398 20.465,113.408 21.050,112.200 21.600 C 110.992 22.150,110.002 22.735,110.001 22.900 C 110.001 23.065,109.640 23.200,109.200 23.200 C 108.760 23.200,108.400 23.380,108.400 23.600 C 108.400 23.820,108.040 24.000,107.600 24.000 C 107.160 24.000,106.800 24.180,106.800 24.400 C 106.800 24.620,106.440 24.800,106.000 24.800 C 105.560 24.800,105.200 24.980,105.200 25.200 C 105.200 25.420,104.840 25.600,104.400 25.600 C 103.960 25.600,103.600 25.736,103.600 25.902 C 103.600 26.069,102.745 26.617,101.700 27.121 C 100.655 27.625,99.260 28.387,98.600 28.813 C 97.940 29.239,97.033 29.752,96.584 29.952 C 96.135 30.153,95.527 30.605,95.235 30.958 C 94.942 31.311,94.454 31.600,94.151 31.600 C 93.848 31.600,93.600 31.780,93.600 32.000 C 93.600 32.220,93.364 32.400,93.075 32.400 C 92.787 32.400,92.164 32.760,91.692 33.200 C 91.220 33.640,90.596 34.000,90.305 34.000 C 90.014 34.000,89.517 34.360,89.200 34.800 C 88.883 35.240,88.420 35.600,88.171 35.600 C 87.922 35.600,87.154 36.140,86.463 36.800 C 85.772 37.460,85.008 38.000,84.764 38.000 C 84.520 38.000,83.817 38.540,83.200 39.200 C 82.583 39.860,81.908 40.400,81.699 40.400 C 81.490 40.400,80.754 40.940,80.063 41.600 C 79.372 42.260,78.708 42.800,78.587 42.800 C 78.357 42.800,78.295 42.848,76.000 44.798 C 75.230 45.452,74.471 45.990,74.313 45.994 C 74.156 45.997,73.436 46.585,72.713 47.300 C 71.991 48.015,70.590 49.230,69.600 50.000 C 68.610 50.770,66.413 52.795,64.717 54.500 C 63.022 56.205,61.530 57.600,61.403 57.600 C 61.275 57.600,60.233 58.603,59.086 59.828 C 57.939 61.054,55.650 63.449,54.000 65.151 C 52.350 66.853,50.550 68.835,50.000 69.556 C 49.450 70.277,48.325 71.587,47.500 72.466 C 46.675 73.346,45.997 74.186,45.994 74.333 C 45.990 74.480,45.452 75.230,44.798 76.000 C 44.144 76.770,43.427 77.617,43.204 77.883 C 42.982 78.149,42.800 78.482,42.800 78.623 C 42.800 78.764,42.260 79.383,41.600 80.000 C 40.940 80.617,40.400 81.319,40.400 81.560 C 40.400 81.802,40.220 82.000,40.000 82.000 C 39.780 82.000,39.600 82.270,39.600 82.600 C 39.600 82.930,39.450 83.200,39.268 83.200 C 39.085 83.200,38.680 83.692,38.368 84.293 C 38.055 84.894,37.305 85.911,36.700 86.552 C 36.095 87.194,35.600 87.922,35.600 88.171 C 35.600 88.420,35.240 88.883,34.800 89.200 C 34.360 89.517,34.000 90.057,34.000 90.400 C 34.000 90.743,33.640 91.283,33.200 91.600 C 32.760 91.917,32.400 92.497,32.400 92.888 C 32.400 93.280,32.220 93.600,32.000 93.600 C 31.780 93.600,31.600 93.793,31.600 94.028 C 31.600 94.263,31.060 95.241,30.400 96.200 C 29.740 97.159,29.200 98.109,29.200 98.310 C 29.200 98.511,28.850 98.993,28.423 99.379 C 27.995 99.766,27.521 100.649,27.369 101.341 C 27.217 102.033,26.757 102.891,26.346 103.247 C 25.936 103.603,25.600 104.188,25.600 104.547 C 25.600 104.906,25.420 105.200,25.200 105.200 C 24.980 105.200,24.800 105.560,24.800 106.000 C 24.800 106.440,24.620 106.800,24.400 106.800 C 24.180 106.800,24.000 107.160,24.000 107.600 C 24.000 108.040,23.820 108.400,23.600 108.400 C 23.380 108.400,23.200 108.760,23.200 109.200 C 23.200 109.640,23.020 110.000,22.800 110.000 C 22.580 110.000,22.400 110.345,22.400 110.767 C 22.400 111.188,22.264 111.593,22.098 111.667 C 21.932 111.740,21.168 113.060,20.400 114.600 C 19.632 116.140,18.868 117.460,18.702 117.533 C 18.536 117.607,18.400 118.012,18.400 118.433 C 18.400 118.855,18.220 119.200,18.000 119.200 C 17.780 119.200,17.600 119.740,17.600 120.400 C 17.600 121.060,17.420 121.600,17.200 121.600 C 16.980 121.600,16.800 121.949,16.800 122.376 C 16.800 122.803,16.620 123.264,16.400 123.400 C 16.180 123.536,16.000 124.087,16.000 124.624 C 16.000 125.161,15.820 125.600,15.600 125.600 C 15.380 125.600,15.200 125.960,15.200 126.400 C 15.200 126.840,15.041 127.200,14.847 127.200 C 14.652 127.200,14.400 127.605,14.286 128.100 C 13.973 129.465,11.237 137.307,10.811 138.065 C 10.605 138.431,10.315 139.646,10.167 140.765 C 10.018 141.884,9.740 142.800,9.548 142.800 C 9.357 142.800,9.200 143.520,9.200 144.400 C 9.200 145.280,9.020 146.000,8.800 146.000 C 8.580 146.000,8.400 146.540,8.400 147.200 C 8.400 147.860,8.220 148.400,8.000 148.400 C 7.780 148.400,7.600 149.019,7.600 149.776 C 7.600 150.533,7.439 151.252,7.242 151.374 C 6.906 151.582,6.694 152.611,6.147 156.700 C 6.022 157.635,5.758 158.400,5.560 158.400 C 5.362 158.400,5.200 159.300,5.200 160.400 C 5.200 161.500,5.020 162.400,4.800 162.400 C 4.580 162.400,4.400 163.199,4.400 164.176 C 4.400 165.153,4.220 166.064,4.000 166.200 C 3.780 166.336,3.600 167.326,3.600 168.400 C 3.600 169.474,3.420 170.464,3.200 170.600 C 2.980 170.736,2.800 172.097,2.800 173.624 C 2.800 175.208,2.628 176.400,2.400 176.400 C 2.165 176.400,2.000 177.792,2.000 179.776 C 2.000 181.633,1.820 183.264,1.600 183.400 C 1.052 183.739,1.052 217.861,1.600 218.200 C 1.820 218.336,2.000 219.967,2.000 221.824 C 2.000 223.808,2.165 225.200,2.400 225.200 C 2.628 225.200,2.800 226.392,2.800 227.976 C 2.800 229.503,2.980 230.864,3.200 231.000 C 3.420 231.136,3.600 232.227,3.600 233.424 C 3.600 234.621,3.780 235.600,4.000 235.600 C 4.220 235.600,4.400 236.399,4.400 237.376 C 4.400 238.353,4.580 239.264,4.800 239.400 C 5.020 239.536,5.200 240.447,5.200 241.424 C 5.200 242.401,5.362 243.200,5.560 243.200 C 5.758 243.200,6.022 243.965,6.147 244.900 C 6.694 248.989,6.906 250.018,7.242 250.226 C 7.439 250.348,7.600 250.977,7.600 251.624 C 7.600 252.271,7.780 252.800,8.000 252.800 C 8.220 252.800,8.400 253.520,8.400 254.400 C 8.400 255.280,8.580 256.000,8.800 256.000 C 9.020 256.000,9.200 256.630,9.200 257.400 C 9.200 258.170,9.357 258.800,9.548 258.800 C 9.740 258.800,10.022 259.741,10.174 260.890 C 10.327 262.040,10.595 263.165,10.770 263.390 C 11.236 263.991,12.800 268.834,12.800 269.678 C 12.800 270.075,12.947 270.400,13.128 270.400 C 13.308 270.400,13.700 271.300,14.000 272.400 C 14.300 273.500,14.692 274.400,14.872 274.400 C 15.053 274.400,15.200 274.760,15.200 275.200 C 15.200 275.640,15.380 276.000,15.600 276.000 C 15.820 276.000,16.000 276.439,16.000 276.976 C 16.000 277.513,16.180 278.064,16.400 278.200 C 16.620 278.336,16.800 278.797,16.800 279.224 C 16.800 279.651,16.980 280.000,17.200 280.000 C 17.420 280.000,17.600 280.540,17.600 281.200 C 17.600 281.860,17.780 282.400,18.000 282.400 C 18.220 282.400,18.400 282.745,18.400 283.167 C 18.400 283.588,18.536 283.993,18.702 284.067 C 18.868 284.140,19.632 285.460,20.400 287.000 C 21.168 288.540,21.932 289.860,22.098 289.933 C 22.264 290.007,22.400 290.412,22.400 290.833 C 22.400 291.255,22.580 291.600,22.800 291.600 C 23.020 291.600,23.200 291.960,23.200 292.400 C 23.200 292.840,23.380 293.200,23.600 293.200 C 23.820 293.200,24.000 293.560,24.000 294.000 C 24.000 294.440,24.180 294.800,24.400 294.800 C 24.620 294.800,24.800 295.160,24.800 295.600 C 24.800 296.040,24.980 296.400,25.200 296.400 C 25.420 296.400,25.600 296.720,25.600 297.112 C 25.600 297.503,25.960 298.083,26.400 298.400 C 26.840 298.717,27.200 299.272,27.200 299.632 C 27.200 299.993,27.650 300.951,28.200 301.762 C 28.750 302.572,29.200 303.330,29.200 303.446 C 29.200 303.561,29.740 304.441,30.400 305.400 C 31.060 306.359,31.600 307.337,31.600 307.572 C 31.600 307.807,31.768 308.000,31.973 308.000 C 32.178 308.000,32.462 308.366,32.604 308.813 C 32.746 309.260,33.298 310.062,33.831 310.595 C 34.364 311.128,34.800 311.842,34.800 312.182 C 34.800 312.522,34.980 312.800,35.200 312.800 C 35.420 312.800,35.600 313.043,35.600 313.341 C 35.600 313.638,36.140 314.446,36.800 315.137 C 37.460 315.828,38.000 316.548,38.000 316.737 C 38.000 316.926,38.540 317.646,39.200 318.337 C 39.860 319.028,40.400 319.748,40.400 319.937 C 40.400 320.126,40.940 320.846,41.600 321.537 C 42.260 322.228,42.800 322.892,42.800 323.013 C 42.800 323.243,42.848 323.305,44.798 325.600 C 45.452 326.370,45.990 327.123,45.994 327.273 C 45.997 327.424,46.900 328.471,48.000 329.600 C 49.100 330.729,50.000 331.815,50.000 332.013 C 50.000 332.515,67.402 349.903,69.600 351.597 C 70.590 352.360,71.850 353.445,72.400 354.008 C 72.950 354.570,74.030 355.469,74.800 356.004 C 75.570 356.539,76.648 357.387,77.196 357.889 C 77.744 358.390,78.346 358.800,78.535 358.800 C 78.724 358.800,79.383 359.340,80.000 360.000 C 80.617 360.660,81.320 361.200,81.564 361.200 C 81.808 361.200,82.572 361.740,83.263 362.400 C 83.954 363.060,84.690 363.600,84.899 363.600 C 85.108 363.600,85.783 364.140,86.400 364.800 C 87.017 365.460,87.809 366.000,88.160 366.000 C 88.512 366.000,88.800 366.180,88.800 366.400 C 88.800 366.620,89.088 366.800,89.440 366.800 C 89.791 366.800,90.583 367.340,91.200 368.000 C 91.817 368.660,92.609 369.200,92.960 369.200 C 93.312 369.200,93.600 369.380,93.600 369.600 C 93.600 369.820,93.793 370.000,94.028 370.000 C 94.263 370.000,95.241 370.540,96.200 371.200 C 97.159 371.860,98.078 372.400,98.241 372.400 C 98.404 372.400,98.821 372.644,99.169 372.943 C 99.516 373.242,100.970 374.095,102.400 374.840 C 103.830 375.584,105.060 376.330,105.133 376.497 C 105.207 376.663,105.612 376.800,106.033 376.800 C 106.455 376.800,106.800 376.980,106.800 377.200 C 106.800 377.420,107.160 377.600,107.600 377.600 C 108.040 377.600,108.400 377.780,108.400 378.000 C 108.400 378.220,108.760 378.400,109.200 378.400 C 109.640 378.400,110.000 378.580,110.000 378.800 C 110.000 379.020,110.345 379.200,110.767 379.200 C 111.188 379.200,111.593 379.336,111.667 379.502 C 111.740 379.668,113.060 380.432,114.600 381.200 C 116.140 381.968,117.460 382.732,117.533 382.898 C 117.607 383.064,118.001 383.200,118.410 383.200 C 118.818 383.200,119.264 383.380,119.400 383.600 C 119.536 383.820,120.087 384.000,120.624 384.000 C 121.161 384.000,121.600 384.180,121.600 384.400 C 121.600 384.620,121.960 384.800,122.400 384.800 C 122.840 384.800,123.200 384.980,123.200 385.200 C 123.200 385.420,123.740 385.600,124.400 385.600 C 125.060 385.600,125.600 385.780,125.600 386.000 C 125.600 386.220,125.960 386.400,126.400 386.400 C 126.840 386.400,127.200 386.580,127.200 386.800 C 127.200 387.020,127.639 387.200,128.176 387.200 C 128.713 387.200,129.264 387.380,129.400 387.600 C 129.536 387.820,129.997 388.000,130.424 388.000 C 130.851 388.000,131.200 388.180,131.200 388.400 C 131.200 388.620,131.477 388.800,131.816 388.800 C 132.633 388.800,137.679 390.413,138.241 390.854 C 138.483 391.044,139.788 391.316,141.141 391.457 C 142.493 391.598,143.600 391.868,143.600 392.057 C 143.600 392.246,144.039 392.400,144.576 392.400 C 145.113 392.400,145.664 392.580,145.800 392.800 C 145.936 393.020,146.667 393.200,147.424 393.200 C 148.181 393.200,148.800 393.380,148.800 393.600 C 148.800 393.820,149.520 394.000,150.400 394.000 C 151.280 394.000,152.000 394.180,152.000 394.400 C 152.000 394.620,152.720 394.800,153.600 394.800 C 154.480 394.800,155.200 394.980,155.200 395.200 C 155.200 395.420,155.909 395.600,156.776 395.600 C 157.643 395.600,158.464 395.780,158.600 396.000 C 158.736 396.220,159.647 396.400,160.624 396.400 C 161.601 396.400,162.400 396.580,162.400 396.800 C 162.400 397.020,163.300 397.200,164.400 397.200 C 165.500 397.200,166.400 397.380,166.400 397.600 C 166.400 397.820,167.289 398.000,168.376 398.000 C 169.463 398.000,170.464 398.180,170.600 398.400 C 170.736 398.620,172.061 398.800,173.544 398.800 C 175.167 398.800,176.439 398.999,176.740 399.300 C 177.469 400.029,224.131 400.029,224.860 399.300 C 225.168 398.992,226.473 398.800,228.256 398.800 C 229.849 398.800,231.264 398.620,231.400 398.400 C 231.536 398.180,232.537 398.000,233.624 398.000 C 234.711 398.000,235.600 397.820,235.600 397.600 C 235.600 397.380,236.410 397.200,237.400 397.200 C 238.390 397.200,239.200 397.020,239.200 396.800 C 239.200 396.580,239.999 396.400,240.976 396.400 C 241.953 396.400,242.864 396.220,243.000 396.000 C 243.136 395.780,243.957 395.600,244.824 395.600 C 245.691 395.600,246.400 395.420,246.400 395.200 C 246.400 394.980,247.120 394.800,248.000 394.800 C 248.880 394.800,249.600 394.620,249.600 394.400 C 249.600 394.180,250.320 394.000,251.200 394.000 C 252.080 394.000,252.800 393.820,252.800 393.600 C 252.800 393.380,253.520 393.200,254.400 393.200 C 255.280 393.200,256.000 393.020,256.000 392.800 C 256.000 392.580,256.540 392.400,257.200 392.400 C 257.860 392.400,258.400 392.245,258.400 392.055 C 258.400 391.865,259.423 391.590,260.674 391.443 C 261.924 391.296,263.139 391.025,263.374 390.842 C 263.608 390.658,265.060 390.117,266.600 389.640 C 268.140 389.163,269.760 388.623,270.200 388.440 C 270.640 388.257,271.540 387.882,272.200 387.607 C 272.860 387.332,273.713 386.948,274.095 386.753 C 274.477 386.559,275.062 386.400,275.395 386.400 C 275.728 386.400,276.000 386.220,276.000 386.000 C 276.000 385.780,276.540 385.600,277.200 385.600 C 277.860 385.600,278.400 385.420,278.400 385.200 C 278.400 384.980,278.760 384.800,279.200 384.800 C 279.640 384.800,280.000 384.620,280.000 384.400 C 280.000 384.180,280.439 384.000,280.976 384.000 C 281.513 384.000,282.064 383.820,282.200 383.600 C 282.336 383.380,282.782 383.200,283.190 383.200 C 283.599 383.200,283.993 383.064,284.067 382.898 C 284.140 382.732,285.460 381.968,287.000 381.200 C 288.540 380.432,289.860 379.668,289.933 379.502 C 290.007 379.336,290.412 379.200,290.833 379.200 C 291.255 379.200,291.600 379.020,291.600 378.800 C 291.600 378.580,291.960 378.400,292.400 378.400 C 292.840 378.400,293.200 378.220,293.200 378.000 C 293.200 377.780,293.560 377.600,294.000 377.600 C 294.440 377.600,294.800 377.420,294.800 377.200 C 294.800 376.980,295.120 376.800,295.512 376.800 C 295.903 376.800,296.483 376.440,296.800 376.000 C 297.117 375.560,297.613 375.200,297.902 375.200 C 298.683 375.200,301.725 373.551,305.465 371.100 C 306.389 370.495,307.337 370.000,307.572 370.000 C 307.807 370.000,308.000 369.832,308.000 369.627 C 308.000 369.422,308.366 369.138,308.813 368.996 C 309.260 368.854,310.062 368.302,310.595 367.769 C 311.128 367.236,311.842 366.800,312.182 366.800 C 312.522 366.800,312.800 366.620,312.800 366.400 C 312.800 366.180,313.088 366.000,313.440 366.000 C 313.791 366.000,314.583 365.460,315.200 364.800 C 315.817 364.140,316.492 363.600,316.701 363.600 C 316.910 363.600,317.646 363.060,318.337 362.400 C 319.028 361.740,319.748 361.200,319.937 361.200 C 320.126 361.200,320.846 360.660,321.537 360.000 C 322.228 359.340,322.937 358.800,323.113 358.800 C 323.289 358.800,324.101 358.170,324.918 357.400 C 325.734 356.630,326.593 356.000,326.827 356.000 C 327.061 356.000,328.095 355.145,329.126 354.100 C 330.157 353.055,331.683 351.690,332.518 351.066 C 334.619 349.496,341.600 342.548,341.600 342.027 C 341.600 341.792,341.802 341.600,342.048 341.600 C 342.528 341.600,351.600 332.444,351.600 331.960 C 351.600 331.802,352.590 330.642,353.800 329.382 C 355.010 328.123,356.000 326.937,356.000 326.747 C 356.000 326.557,356.630 325.734,357.400 324.918 C 358.170 324.101,358.800 323.289,358.800 323.113 C 358.800 322.937,359.340 322.228,360.000 321.537 C 360.660 320.846,361.200 320.126,361.200 319.937 C 361.200 319.748,361.740 319.028,362.400 318.337 C 363.060 317.646,363.600 316.926,363.600 316.737 C 363.600 316.548,364.140 315.828,364.800 315.137 C 365.460 314.446,366.000 313.638,366.000 313.341 C 366.000 313.043,366.180 312.800,366.400 312.800 C 366.620 312.800,366.800 312.480,366.800 312.088 C 366.800 311.697,367.160 311.117,367.600 310.800 C 368.040 310.483,368.400 309.943,368.400 309.600 C 368.400 309.257,368.760 308.717,369.200 308.400 C 369.640 308.083,370.000 307.671,370.000 307.484 C 370.000 307.297,370.495 306.389,371.100 305.465 C 372.815 302.848,373.121 302.337,374.247 300.200 C 374.827 299.100,375.459 298.140,375.651 298.067 C 375.843 297.993,376.000 297.588,376.000 297.167 C 376.000 296.745,376.180 296.400,376.400 296.400 C 376.620 296.400,376.800 296.040,376.800 295.600 C 376.800 295.160,376.980 294.800,377.200 294.800 C 377.420 294.800,377.600 294.440,377.600 294.000 C 377.600 293.560,377.780 293.200,378.000 293.200 C 378.220 293.200,378.400 292.840,378.400 292.400 C 378.400 291.960,378.580 291.600,378.800 291.600 C 379.020 291.600,379.200 291.255,379.200 290.833 C 379.200 290.412,379.336 290.007,379.502 289.933 C 379.668 289.860,380.432 288.540,381.200 287.000 C 381.968 285.460,382.732 284.140,382.898 284.067 C 383.064 283.993,383.200 283.599,383.200 283.190 C 383.200 282.782,383.380 282.336,383.600 282.200 C 383.820 282.064,384.000 281.513,384.000 280.976 C 384.000 280.439,384.180 280.000,384.400 280.000 C 384.620 280.000,384.800 279.640,384.800 279.200 C 384.800 278.760,384.980 278.400,385.200 278.400 C 385.420 278.400,385.600 277.860,385.600 277.200 C 385.600 276.540,385.780 276.000,386.000 276.000 C 386.220 276.000,386.400 275.728,386.400 275.395 C 386.400 275.062,386.580 274.432,386.800 273.995 C 387.020 273.558,387.380 272.842,387.600 272.405 C 387.820 271.968,388.000 271.338,388.000 271.005 C 388.000 270.672,388.180 270.400,388.400 270.400 C 388.620 270.400,388.804 270.085,388.810 269.700 C 388.815 269.315,389.445 267.110,390.209 264.800 C 390.973 262.490,391.599 260.015,391.599 259.300 C 391.600 258.585,391.780 258.000,392.000 258.000 C 392.220 258.000,392.400 257.550,392.400 257.000 C 392.400 256.450,392.580 256.000,392.800 256.000 C 393.020 256.000,393.200 255.291,393.200 254.424 C 393.200 253.557,393.380 252.736,393.600 252.600 C 393.820 252.464,394.000 251.913,394.000 251.376 C 394.000 250.839,394.180 250.400,394.400 250.400 C 394.620 250.400,394.800 249.500,394.800 248.400 C 394.800 247.300,394.980 246.400,395.200 246.400 C 395.420 246.400,395.600 245.691,395.600 244.824 C 395.600 243.957,395.780 243.136,396.000 243.000 C 396.220 242.864,396.400 241.953,396.400 240.976 C 396.400 239.999,396.580 239.200,396.800 239.200 C 397.020 239.200,397.200 238.300,397.200 237.200 C 397.200 236.100,397.380 235.200,397.600 235.200 C 397.820 235.200,398.000 234.311,398.000 233.224 C 398.000 232.137,398.180 231.136,398.400 231.000 C 398.620 230.864,398.800 229.518,398.800 228.010 C 398.800 226.171,398.965 225.212,399.300 225.100 C 399.693 224.969,399.800 219.808,399.800 201.087 C 399.800 182.543,399.689 177.129,399.300 176.740 C 398.998 176.438,398.800 175.163,398.800 173.520 C 398.800 171.973,398.627 170.800,398.400 170.800 C 398.180 170.800,398.000 169.810,398.000 168.600 C 398.000 167.390,397.820 166.400,397.600 166.400 C 397.380 166.400,397.200 165.500,397.200 164.400 C 397.200 163.300,397.020 162.400,396.800 162.400 C 396.580 162.400,396.400 161.601,396.400 160.624 C 396.400 159.647,396.220 158.736,396.000 158.600 C 395.780 158.464,395.600 157.643,395.600 156.776 C 395.600 155.909,395.420 155.200,395.200 155.200 C 394.980 155.200,394.800 154.300,394.800 153.200 C 394.800 152.100,394.620 151.200,394.400 151.200 C 394.180 151.200,394.000 150.660,394.000 150.000 C 394.000 149.340,393.820 148.800,393.600 148.800 C 393.380 148.800,393.200 148.181,393.200 147.424 C 393.200 146.667,393.020 145.936,392.800 145.800 C 392.580 145.664,392.400 145.113,392.400 144.576 C 392.400 144.039,392.220 143.600,392.000 143.600 C 391.780 143.600,391.600 143.029,391.600 142.331 C 391.600 140.878,389.090 132.563,387.957 130.262 C 387.541 129.416,387.200 128.381,387.200 127.962 C 387.200 127.543,387.020 127.200,386.800 127.200 C 386.580 127.200,386.400 126.840,386.400 126.400 C 386.400 125.960,386.220 125.600,386.000 125.600 C 385.780 125.600,385.600 125.060,385.600 124.400 C 385.600 123.740,385.420 123.200,385.200 123.200 C 384.980 123.200,384.800 122.840,384.800 122.400 C 384.800 121.960,384.620 121.600,384.400 121.600 C 384.180 121.600,384.000 121.161,384.000 120.624 C 384.000 120.087,383.820 119.536,383.600 119.400 C 383.380 119.264,383.200 118.818,383.200 118.410 C 383.200 118.001,383.064 117.607,382.898 117.533 C 382.732 117.460,381.968 116.140,381.200 114.600 C 380.432 113.060,379.668 111.740,379.502 111.667 C 379.336 111.593,379.200 111.188,379.200 110.767 C 379.200 110.345,379.020 110.000,378.800 110.000 C 378.580 110.000,378.400 109.640,378.400 109.200 C 378.400 108.760,378.220 108.400,378.000 108.400 C 377.780 108.400,377.600 108.040,377.600 107.600 C 377.600 107.160,377.420 106.800,377.200 106.800 C 376.980 106.800,376.800 106.455,376.800 106.033 C 376.800 105.612,376.663 105.207,376.497 105.133 C 376.330 105.060,375.584 103.830,374.840 102.400 C 374.095 100.970,373.242 99.516,372.943 99.169 C 372.644 98.821,372.400 98.404,372.400 98.241 C 372.400 98.078,371.860 97.159,371.200 96.200 C 370.540 95.241,370.000 94.263,370.000 94.028 C 370.000 93.793,369.832 93.600,369.627 93.600 C 369.422 93.600,369.138 93.234,368.996 92.787 C 368.854 92.340,368.302 91.538,367.769 91.005 C 367.236 90.472,366.800 89.758,366.800 89.418 C 366.800 89.078,366.620 88.800,366.400 88.800 C 366.180 88.800,366.000 88.557,366.000 88.259 C 366.000 87.962,365.460 87.154,364.800 86.463 C 364.140 85.772,363.600 85.052,363.600 84.863 C 363.600 84.674,363.060 83.954,362.400 83.263 C 361.740 82.572,361.200 81.808,361.200 81.564 C 361.200 81.320,360.660 80.617,360.000 80.000 C 359.340 79.383,358.797 78.726,358.794 78.540 C 358.790 78.353,358.250 77.591,357.594 76.846 C 356.937 76.101,356.400 75.364,356.400 75.208 C 356.400 75.052,355.410 73.902,354.200 72.653 C 352.990 71.404,352.000 70.230,352.000 70.044 C 352.000 69.859,350.200 67.877,348.000 65.639 C 345.800 63.402,344.000 61.398,344.000 61.186 C 344.000 60.974,343.844 60.800,343.653 60.800 C 343.461 60.800,340.831 58.370,337.807 55.400 C 334.784 52.430,332.162 50.000,331.981 50.000 C 331.801 50.000,330.729 49.100,329.600 48.000 C 328.471 46.900,327.398 46.000,327.216 46.000 C 327.034 46.000,326.281 45.459,325.542 44.799 C 323.650 43.105,323.264 42.800,323.013 42.800 C 322.892 42.800,322.228 42.260,321.537 41.600 C 320.846 40.940,320.126 40.400,319.937 40.400 C 319.748 40.400,319.028 39.860,318.337 39.200 C 317.646 38.540,316.926 38.000,316.737 38.000 C 316.548 38.000,315.828 37.460,315.137 36.800 C 314.446 36.140,313.638 35.600,313.341 35.600 C 313.043 35.600,312.800 35.420,312.800 35.200 C 312.800 34.980,312.512 34.800,312.160 34.800 C 311.809 34.800,311.017 34.260,310.400 33.600 C 309.783 32.940,308.991 32.400,308.640 32.400 C 308.288 32.400,308.000 32.220,308.000 32.000 C 308.000 31.780,307.807 31.600,307.572 31.600 C 307.337 31.600,306.359 31.060,305.400 30.400 C 304.441 29.740,303.491 29.200,303.290 29.200 C 303.089 29.200,302.607 28.850,302.221 28.423 C 301.834 27.995,300.951 27.521,300.259 27.369 C 299.567 27.217,298.709 26.757,298.353 26.346 C 297.997 25.936,297.412 25.600,297.053 25.600 C 296.694 25.600,296.400 25.420,296.400 25.200 C 296.400 24.980,296.040 24.800,295.600 24.800 C 295.160 24.800,294.800 24.620,294.800 24.400 C 294.800 24.180,294.440 24.000,294.000 24.000 C 293.560 24.000,293.200 23.820,293.200 23.600 C 293.200 23.380,292.855 23.200,292.433 23.200 C 292.012 23.200,291.607 23.064,291.533 22.898 C 291.460 22.732,290.140 21.968,288.600 21.200 C 287.060 20.432,285.740 19.668,285.667 19.502 C 285.593 19.336,285.188 19.200,284.767 19.200 C 284.345 19.200,284.000 19.020,284.000 18.800 C 284.000 18.580,283.651 18.400,283.224 18.400 C 282.797 18.400,282.336 18.220,282.200 18.000 C 282.064 17.780,281.513 17.600,280.976 17.600 C 280.439 17.600,280.000 17.420,280.000 17.200 C 280.000 16.980,279.651 16.800,279.224 16.800 C 278.797 16.800,278.336 16.620,278.200 16.400 C 278.064 16.180,277.513 16.000,276.976 16.000 C 276.439 16.000,276.000 15.820,276.000 15.600 C 276.000 15.380,275.640 15.200,275.200 15.200 C 274.760 15.200,274.400 15.020,274.400 14.800 C 274.400 14.580,274.038 14.400,273.595 14.400 C 273.152 14.400,272.477 14.241,272.095 14.047 C 269.494 12.724,261.091 10.000,259.611 10.000 C 258.945 10.000,258.400 9.820,258.400 9.600 C 258.400 9.380,257.871 9.200,257.224 9.200 C 256.577 9.200,255.936 9.020,255.800 8.800 C 255.664 8.580,254.933 8.400,254.176 8.400 C 253.419 8.400,252.800 8.220,252.800 8.000 C 252.800 7.780,252.260 7.600,251.600 7.600 C 250.940 7.600,250.400 7.420,250.400 7.200 C 250.400 6.980,249.500 6.800,248.400 6.800 C 247.300 6.800,246.400 6.620,246.400 6.400 C 246.400 6.180,245.680 6.000,244.800 6.000 C 243.920 6.000,243.200 5.820,243.200 5.600 C 243.200 5.380,242.401 5.200,241.424 5.200 C 240.447 5.200,239.536 5.020,239.400 4.800 C 239.264 4.580,238.353 4.400,237.376 4.400 C 236.399 4.400,235.600 4.220,235.600 4.000 C 235.600 3.780,234.621 3.600,233.424 3.600 C 232.227 3.600,231.136 3.420,231.000 3.200 C 230.864 2.980,229.629 2.800,228.256 2.800 C 226.883 2.800,225.589 2.633,225.380 2.429 C 224.485 1.556,184.470 0.765,183.200 1.595 M215.400 9.214 C 268.352 13.694,317.073 39.030,349.211 78.800 C 350.189 80.010,351.085 81.090,351.202 81.200 C 352.776 82.680,360.916 94.406,364.807 100.800 C 399.844 158.371,402.179 230.129,370.959 289.895 C 342.390 344.585,289.181 382.159,227.800 390.987 C 208.500 393.763,185.201 393.247,165.433 389.608 C 156.759 388.011,144.089 384.629,137.000 382.019 C 102.684 369.385,72.868 348.494,52.197 322.600 C 51.318 321.500,50.507 320.510,50.393 320.400 C 50.279 320.290,48.907 318.490,47.346 316.400 C 33.030 297.245,22.157 275.317,16.008 253.200 C 15.732 252.210,15.359 250.950,15.179 250.400 C 13.921 246.569,11.431 234.058,10.443 226.600 C -0.461 144.300,41.871 64.881,116.058 28.453 C 138.505 17.431,162.320 10.980,187.600 9.075 C 191.932 8.749,211.027 8.844,215.400 9.214 M210.189 50.100 C 210.087 50.375,210.284 59.330,210.628 70.000 C 210.972 80.670,211.341 92.172,211.447 95.560 C 211.670 102.681,211.598 102.863,209.029 101.656 C 208.028 101.185,207.121 100.800,207.014 100.800 C 206.907 100.800,205.691 100.283,204.310 99.651 C 194.531 95.172,192.763 94.400,192.291 94.400 C 191.999 94.400,191.589 94.238,191.380 94.039 C 191.171 93.841,188.390 92.560,185.200 91.193 C 182.010 89.826,178.050 88.086,176.400 87.327 C 172.444 85.507,172.648 85.598,166.200 82.777 C 163.120 81.430,159.700 79.918,158.600 79.418 C 157.500 78.919,155.250 77.929,153.600 77.219 C 150.511 75.890,148.330 74.927,145.200 73.512 C 144.210 73.065,143.040 72.558,142.600 72.385 C 141.448 71.934,138.618 70.682,135.449 69.221 C 132.741 67.972,131.722 67.889,131.437 68.891 C 129.324 76.316,128.685 78.502,128.192 80.000 C 127.866 80.990,127.353 82.700,127.052 83.800 C 126.429 86.080,123.353 96.345,121.598 102.000 C 120.950 104.090,119.601 108.680,118.599 112.200 C 117.598 115.720,116.336 119.950,115.795 121.600 C 115.253 123.250,113.908 127.750,112.805 131.600 C 111.703 135.450,110.361 139.950,109.825 141.600 C 109.288 143.250,108.277 146.580,107.577 149.000 C 104.312 160.292,104.193 160.591,102.942 160.691 C 102.314 160.741,101.170 160.870,100.400 160.978 C 99.630 161.086,91.890 162.161,83.200 163.368 C 74.510 164.575,66.770 165.732,66.000 165.940 C 65.230 166.147,64.330 166.331,64.000 166.349 C 63.034 166.400,60.843 166.697,49.000 168.386 C 42.840 169.265,37.755 169.987,37.700 169.992 C 37.454 170.012,37.632 171.147,37.900 171.267 C 38.261 171.427,46.616 180.080,55.400 189.392 C 58.920 193.123,63.617 198.072,65.838 200.388 C 74.120 209.028,79.927 215.092,82.857 218.162 C 86.180 221.643,86.465 221.693,87.184 218.910 C 87.893 216.165,89.616 210.339,89.996 209.400 C 90.174 208.960,90.805 206.890,91.399 204.800 C 93.239 198.315,94.394 194.373,95.851 189.600 C 96.624 187.070,97.710 183.470,98.264 181.600 C 98.818 179.730,99.422 177.840,99.606 177.400 C 99.790 176.960,100.031 176.150,100.142 175.600 C 100.385 174.398,100.929 172.499,101.802 169.800 C 102.158 168.700,102.640 167.080,102.874 166.200 C 104.126 161.478,104.421 160.859,105.523 160.628 C 106.952 160.329,112.777 159.498,125.400 157.790 C 131.120 157.017,136.430 156.210,137.200 155.998 C 137.970 155.786,139.503 155.531,140.607 155.431 C 142.379 155.270,152.797 153.812,166.800 151.765 C 169.330 151.395,172.390 150.953,173.600 150.783 C 188.467 148.690,196.516 147.540,199.998 147.009 C 206.598 146.004,212.939 145.206,213.094 145.361 C 213.376 145.642,214.345 186.206,214.076 186.440 C 213.924 186.572,212.540 187.059,211.000 187.523 C 209.460 187.987,205.590 189.171,202.400 190.155 C 199.210 191.139,195.250 192.330,193.600 192.801 C 191.950 193.273,190.150 193.810,189.600 193.995 C 189.050 194.179,186.710 194.902,184.400 195.600 C 182.090 196.298,179.750 197.013,179.200 197.188 C 178.650 197.364,177.390 197.733,176.400 198.010 C 175.410 198.287,173.610 198.839,172.400 199.238 C 171.190 199.636,167.680 200.704,164.600 201.610 C 161.520 202.517,156.750 203.953,154.000 204.802 C 151.250 205.651,148.640 206.405,148.200 206.478 C 146.376 206.781,147.526 207.743,151.200 208.989 C 160.733 212.220,162.803 212.909,165.800 213.843 C 167.560 214.391,169.360 214.993,169.800 215.180 C 170.240 215.367,172.130 215.994,174.000 216.572 C 175.870 217.151,178.030 217.867,178.800 218.163 C 179.570 218.460,181.460 219.100,183.000 219.587 C 184.540 220.073,186.160 220.622,186.600 220.805 C 187.040 220.989,193.520 223.140,201.000 225.584 C 208.480 228.029,214.799 230.157,215.042 230.314 C 215.345 230.510,215.639 236.924,215.971 250.600 C 216.238 261.600,216.600 274.560,216.774 279.400 C 216.948 284.240,217.070 289.910,217.045 292.000 L 217.000 295.800 214.200 296.075 C 203.155 297.161,163.741 301.740,163.497 301.965 C 163.331 302.120,164.501 303.606,166.097 305.268 C 167.694 306.930,172.059 311.510,175.799 315.445 C 181.324 321.260,187.577 327.773,192.030 332.352 C 192.376 332.709,196.861 337.410,201.997 342.800 C 215.568 357.043,218.869 360.400,219.307 360.400 C 219.555 360.400,219.606 357.895,219.445 353.500 C 218.390 324.673,217.937 297.035,218.512 296.615 C 218.840 296.375,226.373 295.401,235.254 294.450 C 244.134 293.498,252.480 292.544,253.800 292.328 C 256.190 291.938,257.597 291.776,261.400 291.452 C 262.500 291.359,265.560 290.999,268.200 290.654 C 270.840 290.308,279.840 289.295,288.200 288.402 C 296.560 287.510,303.941 286.609,304.602 286.399 C 305.263 286.190,307.153 285.927,308.802 285.815 C 310.451 285.704,313.960 285.352,316.600 285.034 C 319.240 284.715,328.330 283.715,336.800 282.810 C 345.270 281.906,353.460 280.980,355.000 280.753 C 356.540 280.526,358.334 280.360,358.986 280.383 C 360.645 280.443,362.462 279.620,362.319 278.874 C 362.236 278.447,357.738 276.796,347.600 273.471 C 339.570 270.837,332.640 268.529,332.200 268.341 C 331.760 268.154,317.540 263.414,300.600 257.809 C 283.660 252.203,269.260 247.416,268.600 247.170 C 267.940 246.925,265.780 246.206,263.800 245.574 C 261.820 244.941,259.840 244.257,259.400 244.054 C 258.960 243.850,252.660 241.751,245.400 239.389 C 238.140 237.027,230.490 234.506,228.400 233.787 C 214.953 229.165,216.039 229.643,215.836 228.260 C 215.383 225.192,214.761 187.879,215.156 187.484 C 215.382 187.258,217.600 186.467,220.084 185.726 C 222.568 184.985,226.940 183.657,229.800 182.775 C 232.660 181.893,235.720 180.976,236.600 180.738 C 237.480 180.499,238.830 180.076,239.600 179.796 C 240.370 179.517,244.690 178.183,249.200 176.833 C 253.710 175.482,259.110 173.850,261.200 173.207 C 263.290 172.563,266.890 171.472,269.200 170.781 C 271.510 170.090,273.813 169.362,274.319 169.163 C 274.824 168.963,275.565 168.800,275.965 168.800 C 276.366 168.800,277.572 168.457,278.647 168.037 C 279.721 167.617,281.860 166.901,283.400 166.446 C 287.359 165.276,298.857 161.794,305.000 159.904 C 307.860 159.025,310.740 158.164,311.400 157.993 C 312.060 157.821,315.660 156.744,319.400 155.600 C 323.140 154.456,326.740 153.373,327.400 153.193 C 328.060 153.013,329.860 152.476,331.400 152.000 C 332.940 151.524,334.740 150.992,335.400 150.818 C 336.060 150.645,337.320 150.231,338.200 149.899 C 339.080 149.567,340.520 149.100,341.400 148.861 C 343.039 148.415,350.347 146.267,352.728 145.530 C 353.458 145.304,354.165 144.836,354.298 144.490 C 354.576 143.765,354.615 143.796,348.400 139.768 C 345.870 138.129,343.530 136.610,343.200 136.393 C 340.462 134.594,338.880 133.537,338.200 133.051 C 337.760 132.737,334.070 130.314,330.000 127.668 C 325.930 125.021,322.060 122.477,321.400 122.013 C 320.049 121.063,307.679 112.926,298.600 107.014 C 295.300 104.866,291.905 102.640,291.055 102.068 C 290.206 101.497,289.190 100.843,288.799 100.615 C 288.408 100.387,285.953 98.778,283.344 97.039 C 275.064 91.523,268.259 87.013,267.590 86.600 C 264.464 84.668,263.036 83.738,262.652 83.386 C 262.403 83.159,261.390 82.494,260.400 81.909 C 259.410 81.324,257.048 79.800,255.151 78.523 C 247.856 73.611,246.081 72.435,242.400 70.075 C 240.310 68.736,237.881 67.136,237.002 66.520 C 236.123 65.904,232.793 63.713,229.602 61.651 C 226.411 59.589,222.029 56.709,219.863 55.251 C 211.087 49.340,210.573 49.067,210.189 50.100 M217.248 106.237 C 219.532 107.248,222.300 108.481,223.400 108.977 C 224.500 109.473,227.560 110.822,230.200 111.976 C 232.840 113.129,235.720 114.400,236.600 114.800 C 237.480 115.200,239.055 115.904,240.100 116.364 C 241.145 116.824,242.765 117.539,243.700 117.954 C 244.635 118.368,246.030 118.977,246.800 119.306 C 249.101 120.290,251.257 121.254,253.857 122.460 C 255.209 123.087,256.410 123.600,256.528 123.600 C 256.645 123.600,258.105 124.230,259.772 125.000 C 261.439 125.770,262.882 126.400,262.979 126.400 C 263.076 126.400,264.740 127.141,266.677 128.047 C 268.615 128.953,270.560 129.832,271.000 130.000 C 271.440 130.168,272.610 130.675,273.600 131.128 C 275.365 131.934,276.696 132.504,279.700 133.741 C 281.472 134.471,281.660 135.200,280.076 135.200 C 278.733 135.200,265.339 137.111,250.600 139.404 C 248.400 139.747,242.550 140.555,237.600 141.201 C 225.801 142.740,215.313 144.283,214.895 144.541 C 213.796 145.220,213.618 143.837,213.279 131.985 C 213.088 125.283,212.823 116.444,212.691 112.342 C 212.484 105.943,212.547 104.400,213.015 104.400 C 213.060 104.400,214.965 105.227,217.248 106.237 M85.638 224.500 C 85.073 226.814,84.450 228.970,83.990 230.200 C 83.826 230.640,83.466 231.810,83.192 232.800 C 82.437 235.518,82.102 236.657,80.835 240.800 C 80.196 242.890,79.016 246.850,78.212 249.600 C 77.408 252.350,76.492 255.410,76.176 256.400 C 75.860 257.390,75.048 260.090,74.371 262.400 C 72.257 269.622,69.358 279.337,68.404 282.400 C 68.233 282.950,67.868 284.210,67.593 285.200 C 67.318 286.190,66.781 287.990,66.401 289.200 C 66.020 290.410,65.418 292.390,65.063 293.600 C 64.707 294.810,63.976 297.240,63.437 299.000 C 59.280 312.570,58.880 314.322,60.000 314.059 C 60.330 313.981,61.410 313.842,62.400 313.750 C 64.319 313.572,101.369 309.361,104.400 308.977 C 105.390 308.851,106.920 308.675,107.800 308.585 C 108.680 308.495,110.120 308.331,111.000 308.221 C 111.880 308.111,119.080 307.291,127.000 306.401 C 134.920 305.510,143.740 304.513,146.600 304.185 C 149.460 303.856,153.017 303.495,154.505 303.382 C 155.993 303.269,157.670 303.002,158.231 302.788 C 158.793 302.575,159.870 302.400,160.626 302.400 C 162.533 302.400,162.428 301.440,160.300 299.416 C 159.365 298.526,155.540 294.573,151.800 290.631 C 148.060 286.689,143.740 282.163,142.200 280.573 C 136.203 274.382,126.358 264.073,125.570 263.160 C 125.114 262.632,122.730 260.124,120.271 257.586 C 117.812 255.049,114.085 251.179,111.988 248.986 C 109.892 246.794,103.895 240.549,98.663 235.110 C 93.430 229.670,88.587 224.585,87.901 223.810 C 86.295 221.996,86.246 222.010,85.638 224.500 " stroke="none" fill="#4c8aa8" fill-rule="evenodd"></path><path id="path1" d="M187.600 9.075 C 128.487 13.530,75.493 43.850,42.315 92.200 C 11.668 136.862,1.442 192.503,14.049 246.000 C 14.490 247.870,14.998 249.850,15.179 250.400 C 15.359 250.950,15.732 252.210,16.008 253.200 C 22.157 275.317,33.030 297.245,47.346 316.400 C 48.907 318.490,50.279 320.290,50.393 320.400 C 50.507 320.510,51.318 321.500,52.197 322.600 C 72.868 348.494,102.684 369.385,137.000 382.019 C 185.006 399.694,243.364 395.428,290.200 370.821 C 364.694 331.683,404.917 248.579,389.608 165.433 C 384.937 140.062,373.763 113.060,359.303 92.200 C 357.160 89.109,351.636 81.609,351.202 81.200 C 351.085 81.090,350.189 80.010,349.211 78.800 C 319.537 42.079,273.781 16.606,226.400 10.429 C 215.009 8.944,197.468 8.332,187.600 9.075 M213.663 51.128 C 214.908 51.938,217.698 53.793,219.863 55.251 C 222.029 56.709,226.411 59.589,229.602 61.651 C 232.793 63.713,236.123 65.904,237.002 66.520 C 237.881 67.136,240.310 68.736,242.400 70.075 C 246.081 72.435,247.856 73.611,255.151 78.523 C 257.048 79.800,259.410 81.324,260.400 81.909 C 261.390 82.494,262.403 83.159,262.652 83.386 C 263.036 83.738,264.464 84.668,267.590 86.600 C 268.259 87.013,275.064 91.523,283.344 97.039 C 285.953 98.778,288.408 100.387,288.799 100.615 C 289.190 100.843,290.206 101.497,291.055 102.068 C 291.905 102.640,295.300 104.866,298.600 107.014 C 307.679 112.926,320.049 121.063,321.400 122.013 C 322.060 122.477,325.930 125.021,330.000 127.668 C 334.070 130.314,337.760 132.737,338.200 133.051 C 338.880 133.537,340.462 134.594,343.200 136.393 C 343.530 136.610,345.870 138.129,348.400 139.768 C 354.615 143.796,354.576 143.765,354.298 144.490 C 354.165 144.836,353.458 145.304,352.728 145.530 C 350.347 146.267,343.039 148.415,341.400 148.861 C 340.520 149.100,339.080 149.567,338.200 149.899 C 337.320 150.231,336.060 150.645,335.400 150.818 C 334.740 150.992,332.940 151.524,331.400 152.000 C 329.860 152.476,328.060 153.013,327.400 153.193 C 326.740 153.373,323.140 154.456,319.400 155.600 C 315.660 156.744,312.060 157.821,311.400 157.993 C 310.740 158.164,307.860 159.025,305.000 159.904 C 298.857 161.794,287.359 165.276,283.400 166.446 C 281.860 166.901,279.721 167.617,278.647 168.037 C 277.572 168.457,276.366 168.800,275.965 168.800 C 275.565 168.800,274.824 168.963,274.319 169.163 C 273.813 169.362,271.510 170.090,269.200 170.781 C 266.890 171.472,263.290 172.563,261.200 173.207 C 259.110 173.850,253.710 175.482,249.200 176.833 C 244.690 178.183,240.370 179.517,239.600 179.796 C 238.830 180.076,237.480 180.499,236.600 180.738 C 235.720 180.976,232.660 181.893,229.800 182.775 C 226.940 183.657,222.568 184.985,220.084 185.726 C 217.600 186.467,215.382 187.258,215.156 187.484 C 214.761 187.879,215.383 225.192,215.836 228.260 C 216.039 229.643,214.953 229.165,228.400 233.787 C 230.490 234.506,238.140 237.027,245.400 239.389 C 252.660 241.751,258.960 243.850,259.400 244.054 C 259.840 244.257,261.820 244.941,263.800 245.574 C 265.780 246.206,267.940 246.925,268.600 247.170 C 269.260 247.416,283.660 252.203,300.600 257.809 C 317.540 263.414,331.760 268.154,332.200 268.341 C 332.640 268.529,339.570 270.837,347.600 273.471 C 357.738 276.796,362.236 278.447,362.319 278.874 C 362.462 279.620,360.645 280.443,358.986 280.383 C 358.334 280.360,356.540 280.526,355.000 280.753 C 353.460 280.980,345.270 281.906,336.800 282.810 C 328.330 283.715,319.240 284.715,316.600 285.034 C 313.960 285.352,310.451 285.704,308.802 285.815 C 307.153 285.927,305.263 286.190,304.602 286.399 C 303.941 286.609,296.560 287.510,288.200 288.402 C 279.840 289.295,270.840 290.308,268.200 290.654 C 265.560 290.999,262.500 291.359,261.400 291.452 C 257.597 291.776,256.190 291.938,253.800 292.328 C 252.480 292.544,244.134 293.498,235.254 294.450 C 226.373 295.401,218.840 296.375,218.512 296.615 C 217.937 297.035,218.390 324.673,219.445 353.500 C 219.606 357.895,219.555 360.400,219.307 360.400 C 218.869 360.400,215.568 357.043,201.997 342.800 C 196.861 337.410,192.376 332.709,192.030 332.352 C 187.577 327.773,181.324 321.260,175.799 315.445 C 172.059 311.510,167.694 306.930,166.097 305.268 C 164.501 303.606,163.331 302.120,163.497 301.965 C 163.741 301.740,203.155 297.161,214.200 296.075 L 217.000 295.800 217.045 292.000 C 217.070 289.910,216.948 284.240,216.774 279.400 C 216.600 274.560,216.238 261.600,215.971 250.600 C 215.639 236.924,215.345 230.510,215.042 230.314 C 214.799 230.157,208.480 228.029,201.000 225.584 C 193.520 223.140,187.040 220.989,186.600 220.805 C 186.160 220.622,184.540 220.073,183.000 219.587 C 181.460 219.100,179.570 218.460,178.800 218.163 C 178.030 217.867,175.870 217.151,174.000 216.572 C 172.130 215.994,170.240 215.367,169.800 215.180 C 169.360 214.993,167.560 214.391,165.800 213.843 C 162.803 212.909,160.733 212.220,151.200 208.989 C 147.526 207.743,146.376 206.781,148.200 206.478 C 148.640 206.405,151.250 205.651,154.000 204.802 C 156.750 203.953,161.520 202.517,164.600 201.610 C 167.680 200.704,171.190 199.636,172.400 199.238 C 173.610 198.839,175.410 198.287,176.400 198.010 C 177.390 197.733,178.650 197.364,179.200 197.188 C 179.750 197.013,182.090 196.298,184.400 195.600 C 186.710 194.902,189.050 194.179,189.600 193.995 C 190.150 193.810,191.950 193.273,193.600 192.801 C 195.250 192.330,199.210 191.139,202.400 190.155 C 205.590 189.171,209.460 187.987,211.000 187.523 C 212.540 187.059,213.924 186.572,214.076 186.440 C 214.345 186.206,213.376 145.642,213.094 145.361 C 212.939 145.206,206.598 146.004,199.998 147.009 C 196.516 147.540,188.467 148.690,173.600 150.783 C 172.390 150.953,169.330 151.395,166.800 151.765 C 152.797 153.812,142.379 155.270,140.607 155.431 C 139.503 155.531,137.970 155.786,137.200 155.998 C 136.430 156.210,131.120 157.017,125.400 157.790 C 112.777 159.498,106.952 160.329,105.523 160.628 C 104.421 160.859,104.126 161.478,102.874 166.200 C 102.640 167.080,102.158 168.700,101.802 169.800 C 100.929 172.499,100.385 174.398,100.142 175.600 C 100.031 176.150,99.790 176.960,99.606 177.400 C 99.422 177.840,98.818 179.730,98.264 181.600 C 97.710 183.470,96.624 187.070,95.851 189.600 C 94.394 194.373,93.239 198.315,91.399 204.800 C 90.805 206.890,90.174 208.960,89.996 209.400 C 89.616 210.339,87.893 216.165,87.184 218.910 C 86.465 221.693,86.180 221.643,82.857 218.162 C 79.927 215.092,74.120 209.028,65.838 200.388 C 63.617 198.072,58.920 193.123,55.400 189.392 C 46.616 180.080,38.261 171.427,37.900 171.267 C 37.632 171.147,37.454 170.012,37.700 169.992 C 37.755 169.987,42.840 169.265,49.000 168.386 C 60.843 166.697,63.034 166.400,64.000 166.349 C 64.330 166.331,65.230 166.147,66.000 165.940 C 66.770 165.732,74.510 164.575,83.200 163.368 C 91.890 162.161,99.630 161.086,100.400 160.978 C 101.170 160.870,102.314 160.741,102.942 160.691 C 104.193 160.591,104.312 160.292,107.577 149.000 C 108.277 146.580,109.288 143.250,109.825 141.600 C 110.361 139.950,111.703 135.450,112.805 131.600 C 113.908 127.750,115.253 123.250,115.795 121.600 C 116.336 119.950,117.598 115.720,118.599 112.200 C 119.601 108.680,120.950 104.090,121.598 102.000 C 123.353 96.345,126.429 86.080,127.052 83.800 C 127.353 82.700,127.866 80.990,128.192 80.000 C 128.685 78.502,129.324 76.316,131.437 68.891 C 131.722 67.889,132.741 67.972,135.449 69.221 C 138.618 70.682,141.448 71.934,142.600 72.385 C 143.040 72.558,144.210 73.065,145.200 73.512 C 148.330 74.927,150.511 75.890,153.600 77.219 C 155.250 77.929,157.500 78.919,158.600 79.418 C 159.700 79.918,163.120 81.430,166.200 82.777 C 172.648 85.598,172.444 85.507,176.400 87.327 C 178.050 88.086,182.010 89.826,185.200 91.193 C 188.390 92.560,191.171 93.841,191.380 94.039 C 191.589 94.238,191.999 94.400,192.291 94.400 C 192.763 94.400,194.531 95.172,204.310 99.651 C 205.691 100.283,206.907 100.800,207.014 100.800 C 207.121 100.800,208.028 101.185,209.029 101.656 C 211.598 102.863,211.670 102.681,211.447 95.560 C 211.341 92.172,210.972 80.670,210.628 70.000 C 209.880 46.790,209.607 48.490,213.663 51.128 M212.692 104.642 C 212.559 104.774,212.558 108.239,212.691 112.342 C 212.823 116.444,213.088 125.283,213.279 131.985 C 213.618 143.837,213.796 145.220,214.895 144.541 C 215.313 144.283,225.801 142.740,237.600 141.201 C 242.550 140.555,248.400 139.747,250.600 139.404 C 265.339 137.111,278.733 135.200,280.076 135.200 C 281.660 135.200,281.472 134.471,279.700 133.741 C 276.696 132.504,275.365 131.934,273.600 131.128 C 272.610 130.675,271.440 130.168,271.000 130.000 C 270.560 129.832,268.615 128.953,266.677 128.047 C 264.740 127.141,263.076 126.400,262.979 126.400 C 262.882 126.400,261.439 125.770,259.772 125.000 C 258.105 124.230,256.645 123.600,256.528 123.600 C 256.410 123.600,255.209 123.087,253.857 122.460 C 251.257 121.254,249.101 120.290,246.800 119.306 C 246.030 118.977,244.635 118.368,243.700 117.954 C 242.765 117.539,241.145 116.824,240.100 116.364 C 239.055 115.904,237.480 115.200,236.600 114.800 C 235.720 114.400,232.840 113.129,230.200 111.976 C 227.560 110.822,224.500 109.473,223.400 108.977 C 213.663 104.586,213.012 104.322,212.692 104.642 M87.901 223.810 C 88.587 224.585,93.430 229.670,98.663 235.110 C 103.895 240.549,109.892 246.794,111.988 248.986 C 114.085 251.179,117.812 255.049,120.271 257.586 C 122.730 260.124,125.114 262.632,125.570 263.160 C 126.358 264.073,136.203 274.382,142.200 280.573 C 143.740 282.163,148.060 286.689,151.800 290.631 C 155.540 294.573,159.365 298.526,160.300 299.416 C 162.428 301.440,162.533 302.400,160.626 302.400 C 159.870 302.400,158.793 302.575,158.231 302.788 C 157.670 303.002,155.993 303.269,154.505 303.382 C 153.017 303.495,149.460 303.856,146.600 304.185 C 143.740 304.513,134.920 305.510,127.000 306.401 C 119.080 307.291,111.880 308.111,111.000 308.221 C 110.120 308.331,108.680 308.495,107.800 308.585 C 106.920 308.675,105.390 308.851,104.400 308.977 C 101.369 309.361,64.319 313.572,62.400 313.750 C 61.410 313.842,60.330 313.981,60.000 314.059 C 58.880 314.322,59.280 312.570,63.437 299.000 C 63.976 297.240,64.707 294.810,65.063 293.600 C 65.418 292.390,66.020 290.410,66.401 289.200 C 66.781 287.990,67.318 286.190,67.593 285.200 C 67.868 284.210,68.233 282.950,68.404 282.400 C 69.358 279.337,72.257 269.622,74.371 262.400 C 75.048 260.090,75.860 257.390,76.176 256.400 C 76.492 255.410,77.408 252.350,78.212 249.600 C 79.016 246.850,80.196 242.890,80.835 240.800 C 82.102 236.657,82.437 235.518,83.192 232.800 C 83.466 231.810,83.826 230.640,83.990 230.200 C 84.450 228.970,85.073 226.814,85.638 224.500 C 86.246 222.010,86.295 221.996,87.901 223.810 " stroke="none" fill="#13232b" fill-rule="evenodd"></path></g></svg>